<?xml version="1.0" encoding="utf-8"?>
<!-- Generator: Adobe Illustrator 16.0.0, SVG Export Plug-In . SVG Version: 6.00 Build 0)  -->
<!DOCTYPE svg PUBLIC "-//W3C//DTD SVG 1.1//EN" "http://www.w3.org/Graphics/SVG/1.1/DTD/svg11.dtd">
<svg version="1.1" id="Layer_1" xmlns="http://www.w3.org/2000/svg" xmlns:xlink="http://www.w3.org/1999/xlink" x="0px" y="0px"
	 width="1500px" height="1500px" viewBox="0 0 1500 1500" enable-background="new 0 0 1500 1500" xml:space="preserve">
<image display="none" overflow="visible" enable-background="new    " width="208" height="208" xlink:href="C5E6316B.png"  transform="matrix(7.2115 0 0 7.2115 -0.0017 -0.0022)">
</image>
<g display="none">
	
		<rect x="168.555" y="565.309" transform="matrix(-0.7071 0.7071 -0.7071 -0.7071 1237.1298 1073.5293)" display="inline" fill="none" width="455.348" height="455.349"/>
	
		<rect x="221.716" y="621.075" transform="matrix(-0.7071 0.7071 -0.7071 -0.7071 1238.9673 1077.9777)" display="inline" fill="none" width="349.024" height="349.024"/>
</g>
<g>
	<g>
		<g id="XMLID_1_">
			<g>
				<path fill="#AF2535" d="M657.811,861.918v80.006l-281.619,281.618h-80.049L17.67,945.069v-86.295l274.699-274.7h87.598
					L657.811,861.918z M598.732,919.481v-29.28l-247.721-247.72h-29.675L76.817,886.989v35.705l242.441,242.441h33.819
					L598.732,919.481z"/>
			</g>
		</g>
	</g>
	<g>
		<g id="XMLID_2_">
			<g>
				<path fill="#AF2535" d="M1071.578,861.154v80.005L789.96,1222.776h-80.049L431.438,944.303V858.01l274.7-274.701h87.597
					L1071.578,861.154z M1012.499,918.719v-29.283l-247.722-247.72h-29.675L490.585,886.224v35.706l242.441,242.441h33.82
					L1012.499,918.719z"/>
			</g>
		</g>
	</g>
	<g>
		<g id="XMLID_3_">
			<g>
				<path fill="#AF2535" d="M1485.474,862.956v80.003l-281.616,281.619h-80.053L845.334,946.102v-86.294l274.697-274.699h87.599
					L1485.474,862.956z M1426.397,920.518v-29.282l-247.723-247.719H1149L904.482,888.023v35.707l242.44,242.441h33.82
					L1426.397,920.518z"/>
			</g>
		</g>
	</g>
	<g>
		<g id="XMLID_4_">
			<g>
				<path fill="#AF2535" d="M1071.613,450.959v80.006L789.994,812.583h-80.049L431.472,534.11v-86.295l274.7-274.699h87.597
					L1071.613,450.959z M1012.532,508.523v-29.282l-247.72-247.72h-29.675l-244.52,244.508v35.707L733.06,754.177h33.818
					L1012.532,508.523z"/>
			</g>
		</g>
	</g>
	
		<rect x="630.449" y="718.43" transform="matrix(-0.7068 0.7075 -0.7075 -0.7068 1637.139 765.4196)" fill="#FFFFFF" width="58.975" height="7.151"/>
	
		<rect x="581.848" y="669.839" transform="matrix(-0.7068 0.7074 -0.7074 -0.7068 1519.6919 716.6531)" fill="#FFFFFF" width="58.971" height="6.827"/>
	
		<rect x="808.555" y="671.535" transform="matrix(-0.7067 0.7076 -0.7076 -0.7067 1912.9883 557.116)" fill="#FFFFFF" width="64.902" height="7.153"/>
	
		<rect x="855.547" y="716.183" transform="matrix(-0.7066 0.7076 -0.7076 -0.7066 2024.7783 600.0591)" fill="#FFFFFF" width="64.903" height="7.153"/>
	
		<rect x="899.548" y="990.519" transform="matrix(-0.7067 0.7076 -0.7076 -0.7067 2293.981 1037.1328)" fill="#FFFFFF" width="64.903" height="7.151"/>
	
		<rect x="947.477" y="1034.322" transform="matrix(-0.7067 0.7076 -0.7076 -0.7067 2406.7712 1077.994)" fill="#FFFFFF" width="64.901" height="7.153"/>
	
		<rect x="534.123" y="1035.09" transform="matrix(-0.7067 0.7076 -0.7076 -0.7067 1701.864 1371.7607)" fill="#FFFFFF" width="64.902" height="7.153"/>
	
		<rect x="486.572" y="990.538" transform="matrix(-0.7067 0.7076 -0.7076 -0.7067 1589.1858 1329.3712)" fill="#FFFFFF" width="64.902" height="7.152"/>
	
		<rect x="485.453" y="810.826" transform="matrix(0.7062 0.708 -0.708 0.7062 728.7623 -127.4115)" fill="#FFFFFF" width="64.899" height="7.152"/>
	
		<rect x="535.436" y="763.229" transform="matrix(0.7062 0.708 -0.708 0.7062 709.7471 -176.7838)" fill="#FFFFFF" width="64.899" height="7.151"/>
</g>
</svg>
