<?xml version="1.0" encoding="utf-8"?>
<!-- Generator: Adobe Illustrator 16.0.0, SVG Export Plug-In . SVG Version: 6.00 Build 0)  -->
<!DOCTYPE svg PUBLIC "-//W3C//DTD SVG 1.1//EN" "http://www.w3.org/Graphics/SVG/1.1/DTD/svg11.dtd">
<svg version="1.1" id="Layer_1" xmlns="http://www.w3.org/2000/svg" xmlns:xlink="http://www.w3.org/1999/xlink" x="0px" y="0px"
	 width="1500px" height="1500px" viewBox="0 0 1500 1500" enable-background="new 0 0 1500 1500" xml:space="preserve">
<g>
	<g id="XMLID_1_">
		<g>
			<polygon fill="#262626" points="961.592,206.847 961.592,258.493 779.802,440.283 728.127,440.283 548.367,260.523 
				548.367,204.817 725.692,27.492 782.239,27.492 			"/>
		</g>
	</g>
</g>
<g>
	<g id="XMLID_2_">
		<g>
			<polygon fill="#262626" points="961.589,727.842 961.589,779.487 779.807,961.278 728.132,961.278 548.369,781.516 
				548.369,725.812 725.697,548.487 782.242,548.487 			"/>
		</g>
	</g>
</g>
<g>
	<g id="XMLID_3_">
		<g>
			<polygon fill="#262626" points="701.094,467.344 701.094,518.99 519.308,700.782 467.636,700.782 287.874,521.02 
				287.874,465.315 465.199,287.99 521.745,287.99 			"/>
		</g>
	</g>
</g>
<g>
	<g id="XMLID_4_">
		<g>
			<polygon fill="#262626" points="1222.086,467.343 1222.086,518.987 1040.295,700.78 988.622,700.78 808.868,521.018 
				808.868,465.313 986.184,287.988 1042.739,287.988 			"/>
		</g>
	</g>
</g>
<g>
	<g id="XMLID_5_">
		<g>
			<polygon fill="#262626" points="440.598,727.84 440.598,779.484 258.807,961.275 207.132,961.275 27.378,781.514 27.378,725.809 
				204.696,548.484 261.25,548.484 			"/>
		</g>
	</g>
</g>
<g>
	<g id="XMLID_7_">
		<g>
			<polygon fill="#262626" points="701.094,988.334 701.094,1039.978 519.302,1221.779 467.629,1221.779 287.874,1042.01 
				287.874,986.305 465.192,808.979 521.745,808.979 			"/>
		</g>
	</g>
</g>
<g>
	<g id="XMLID_8_">
		<g>
			<polygon fill="#262626" points="1222.081,988.337 1222.081,1039.982 1040.305,1221.773 988.633,1221.773 808.865,1042.013 
				808.865,986.308 986.195,808.982 1042.736,808.982 			"/>
		</g>
	</g>
</g>
<g>
	<g id="XMLID_9_">
		<g>
			<polygon fill="#262626" points="961.59,1248.834 961.59,1300.479 779.8,1482.276 728.124,1482.276 548.371,1302.508 
				548.371,1246.802 725.688,1069.477 782.242,1069.477 			"/>
		</g>
	</g>
</g>
<g>
	<g id="XMLID_10_">
		<g>
			<polygon fill="#AF252B" points="1152.157,633.356 1186.529,598.987 1428.498,598.987 1462.889,633.374 1462.889,872.644 
				1425.817,909.718 1189.791,909.718 1152.157,872.083 			"/>
		</g>
	</g>
</g>
<g display="none">
	<g id="XMLID_6_" display="inline">
		<g>
			<polygon fill="#262626" points="1378.52,639.927 1378.52,683.769 1224.22,838.068 1180.36,838.068 1027.788,685.485 
				1027.788,638.204 1178.291,487.695 1226.293,487.695 			"/>
		</g>
	</g>
</g>
</svg>
