<?xml version="1.0" encoding="utf-8"?>
<!-- Generator: Adobe Illustrator 16.0.0, SVG Export Plug-In . SVG Version: 6.00 Build 0)  -->
<!DOCTYPE svg PUBLIC "-//W3C//DTD SVG 1.1//EN" "http://www.w3.org/Graphics/SVG/1.1/DTD/svg11.dtd">
<svg version="1.1" id="Layer_1" xmlns="http://www.w3.org/2000/svg" xmlns:xlink="http://www.w3.org/1999/xlink" x="0px" y="0px"
	 width="1500px" height="1500px" viewBox="0 0 1500 1500" enable-background="new 0 0 1500 1500" xml:space="preserve">
<g>
	<g id="XMLID_1_">
		<g>
			<polygon fill="#E6E7E8" points="960.987,203.924 960.987,255.4 779.789,436.599 728.282,436.599 549.108,257.424 549.108,201.9 
				725.855,25.154 782.217,25.154 			"/>
		</g>
	</g>
</g>
<g>
	<g id="XMLID_2_">
		<g>
			<polygon fill="#E6E7E8" points="960.983,723.219 960.983,774.695 779.793,955.894 728.286,955.894 549.112,776.719 
				549.112,721.195 725.859,544.448 782.221,544.448 			"/>
		</g>
	</g>
</g>
<g>
	<g id="XMLID_3_">
		<g>
			<polygon fill="#E6E7E8" points="701.336,463.571 701.336,515.049 520.146,696.247 468.64,696.247 289.465,517.072 
				289.465,461.549 466.212,284.802 522.573,284.802 			"/>
		</g>
	</g>
</g>
<g>
	<g id="XMLID_4_">
		<g>
			<polygon fill="#E6E7E8" points="1220.631,463.569 1220.631,515.046 1039.433,696.244 987.927,696.244 808.76,517.069 
				808.76,461.546 985.498,284.799 1041.867,284.799 			"/>
		</g>
	</g>
</g>
<g>
	<g id="XMLID_5_">
		<g>
			<polygon fill="#E6E7E8" points="441.69,723.217 441.69,774.692 260.492,955.891 208.987,955.891 29.819,776.717 29.819,721.192 
				206.559,544.446 262.928,544.446 			"/>
		</g>
	</g>
</g>
<g>
	<g id="XMLID_7_">
		<g>
			<polygon fill="#E6E7E8" points="701.336,982.861 701.336,1034.339 520.139,1215.545 468.633,1215.545 289.465,1036.361 
				289.465,980.839 466.204,804.092 522.573,804.092 			"/>
		</g>
	</g>
</g>
<g>
	<g id="XMLID_8_">
		<g>
			<polygon fill="#E6E7E8" points="1220.627,982.865 1220.627,1034.343 1039.442,1215.541 987.938,1215.541 808.755,1036.365 
				808.755,980.842 985.509,804.095 1041.863,804.095 			"/>
		</g>
	</g>
</g>
<g>
	<g id="XMLID_9_">
		<g>
			<polygon fill="#E6E7E8" points="960.983,1242.511 960.983,1293.987 779.784,1475.193 728.28,1475.193 549.112,1296.011 
				549.112,1240.487 725.852,1063.741 782.221,1063.741 			"/>
		</g>
	</g>
</g>
<g>
	<g id="XMLID_10_">
		<g>
			<polygon fill="#AF252B" points="1150.931,629.043 1185.188,594.783 1426.368,594.783 1460.646,629.061 1460.646,867.549 
				1423.695,904.5 1188.44,904.5 1150.931,866.99 			"/>
		</g>
	</g>
</g>
<g display="none">
	<g id="XMLID_6_" display="inline">
		<g>
			<polygon fill="#262626" points="1378.52,639.927 1378.52,683.769 1224.22,838.068 1180.36,838.068 1027.788,685.485 
				1027.788,638.204 1178.291,487.695 1226.293,487.695 			"/>
		</g>
	</g>
</g>
</svg>
